<svg id="Layer_1" data-name="Layer 1" xmlns="http://www.w3.org/2000/svg" viewBox="0 0 580.74 155.66"><defs><style>.cls-1{fill:#fff;}</style></defs><rect class="cls-1" x="127.81" y="145.35" width="13.37" height="1.07"/><rect class="cls-1" x="127.81" y="147.31" width="13.37" height="0.87"/><rect class="cls-1" x="127.81" y="143.4" width="13.37" height="1.07"/><rect class="cls-1" x="127.81" y="148.83" width="13.37" height="0.75"/><rect class="cls-1" x="127.81" y="150.23" width="13.37" height="0.58"/><rect class="cls-1" x="127.81" y="141.57" width="13.37" height="1.14"/><rect class="cls-1" x="127.81" y="138.62" width="13.37" height="0.52"/><rect class="cls-1" x="127.81" y="139.58" width="13.37" height="0.6"/><rect class="cls-1" x="127.81" y="140.62" width="13.37" height="0.52"/><path class="cls-1" d="M33.83,151l-5.34-6.65-.18.52s1.77,2.78.78,4.94V151m15.65,0-6.38-8.1v2.36a7.21,7.21,0,0,0,1,1.59c.38.39,1,3.29.3,4.15m17,0-6.43-8.4H49.07v2.73a5.5,5.5,0,0,0,1.14,1.52c.65.66,1.06,3.11,0,4.15Zm60.06,0a9.3,9.3,0,0,0-3-3.08h13.67V142l-1.75-.91h-22v-.84l2.35.08V138.9l-1.14-1.3-2.41-2.92H105l-.33-14.14h-.9v1.74h-.38s-.15-6.75-.15-7.74a4.78,4.78,0,0,0-.46-1.9,15.36,15.36,0,0,1-1.74-1c-1.22-.76-2.2,1.29-2.2,1.29s-1.75,2.59-2.66,4a7.24,7.24,0,0,0-1.07,2.5l-1.81,6.08a31.79,31.79,0,0,0-.46-6.38H91.74v-5.62l-1.14.69-1-.76S75,124.26,67.29,126.16V127s1.44,6.31,1.22,7.52-.84,7.29-7.29,7.52v3l2,3,5.32-8.81-.69,2.58,6.46-8.58.68.23-3.57,7.29-.53-1.37L64.44,151Zm-77.05,0h5.09m-15.65,0h4.74"/><path class="cls-1" d="M118.54,106.78l3.41,3.35s-2.53,4.17-2.53,8h-.88Z"/><path class="cls-1" d="M4.34,99l7.46,9.27L8.07,99h6.62l7.16,10.33L17.89,99h9.9l7.61,10.33L31.6,99h8.68l14.46,31.14,8.07,9.26h-3.5l-.46,6.38,1.68,2.08V149H57.48l-6.7-8.81H47.33l-.71,5.37L49,148.09l-.11.91H45.5l-6.59-8.61H36.47v4.86l1.62,2.84V149H34.54l-7.11-9.62h-1L26,144l1.93,2.53V148H24.69s-5.88-6.48-11.37-19.65l.51-3.64Z"/><path class="cls-1" d="M8.15,97.36h1.92s.92-4.86,6.7-11.24A33.88,33.88,0,0,0,8.15,97.36Z"/><polygon class="cls-1" points="26.93 77.82 26.93 83.39 30.38 83.39 30.38 85.52 25.3 85.52 19.82 95.44 19.82 97.36 17.59 97.36 17.59 95.64 26.93 77.82"/><polygon class="cls-1" points="31.8 97.87 31.8 96.55 44.69 77.82 45.51 84.4 42.46 84.4 34.24 96.45 34.24 97.87 31.8 97.87"/><path class="cls-1" d="M41.55,99s3.69-7.9,4.67-9.77c1.32-2.53,5-2.72,5.48.81.67,5.1,4.67,34,4.67,34l5-4.28L65,123.48l1.42,12L64,139s-4.46-3.45-9.34-13.17S41.55,99,41.55,99Z"/><path class="cls-1" d="M50.68,86.12l4.17-1.82s3,2.23,3.35,4.25c.13.93,2.64,29.67,2.64,29.67l-3.56,3.64L53.22,90S52.71,86.53,50.68,86.12Z"/><path class="cls-1" d="M30.57,79.73h-.19L53.19,46.16s2.54-3.87,4-3.26-1.85,4.71-1.85,4.71L33.88,79.73H32.73L50.16,53.89Z"/><path class="cls-1" d="M84.9,4.31l-.71-2.12a48.43,48.43,0,0,0-4.88,3.44,42.25,42.25,0,0,0-4,6.07c-.71,1.32-2.94,6.08-2.94,6.08h2S64.79,38.94,63.17,41.37s-2.84,5.16-6.5,7.09a9.39,9.39,0,0,1-.3,4.25C55.66,54.84,45.1,76.4,45.1,76.4s3.35.71,3.55,5.57h1.93S58.3,65.16,61.45,58.28s4.16-10.23,5.07-14.78,3.45-11,8.33-19.95,9.54-18,9.54-18l-3.76.71Zm-4,3.34-4.88,9H73.83l4.06-8.2Z"/><path class="cls-1" d="M70.18,19s-2.34.61-3.05,1.83S52.41,41.57,52.41,41.57s-1.32,3.24.41,4.36c0,0,1.6-2.28,2-3.09a2,2,0,0,1,2.94-.76,2.07,2.07,0,0,1,.3,2.83c-.5.61-1.62,2.23-1.62,2.23s1.12,1.72,4.67-4.45,11.67-24,11.67-24ZM58.09,40.26a6.06,6.06,0,0,0-4.46,1.82c2.64-4.25,14.92-21.36,14.92-21.36h1.83Z"/><path class="cls-1" d="M85.6,5.32,93.52.16l.41,3.54s-4.37,8.61-4.67,10.94-.61,3.85,0,5.26L54.54,83.59a8.06,8.06,0,0,0-3.35-.71s13.3-28.65,15.12-33.11,1.93-8.91,4.37-14.38S85.6,5.32,85.6,5.32Z"/><path class="cls-1" d="M92.51,19.6l1.37-1.52,1.22,1.67.15,3.8s4.11,5.77,4.87,9S114.74,84.6,114.74,84.6l2.59.61-1.07,2,0,1.47h-2.23l.24,6.3S110,81.26,107.62,74.62c-4.9-13.56-12.07-40-12.07-40a13.93,13.93,0,0,1-.76-4.1c.15-1.37.15-2.59.15-2.59l-2-3.19.31-3Z"/><polygon class="cls-1" points="133.92 104.45 134.91 104.45 134.91 131.79 117.99 131.79 117.99 129.56 133.92 129.56 133.92 104.45"/><polygon class="cls-1" points="118.43 118.83 122.82 118.83 122.82 118.12 131.06 118.12 133.26 114.57 133.26 128.75 118.43 128.75 118.43 118.83"/><polygon class="cls-1" points="119.97 104.92 132.82 104.45 132.82 109.31 123.92 109.31 123.92 110.73 119.97 107.08 119.97 104.92"/><polygon class="cls-1" points="117.99 133.2 134.74 133 140.02 136.65 140.02 137.36 125.25 137.36 117.99 133.2"/><polygon class="cls-1" points="115.01 89.39 115.73 89.39 117.33 102.03 116.17 103.84 115.01 89.39"/><polygon class="cls-1" points="108.55 134.32 114.44 134.32 114.44 126.52 110.38 126.52 110.38 123.18 109.16 121.86 109.16 132.39 108.55 132.39 108.55 134.32"/><path class="cls-1" d="M116.27,104.45l-1.18-15.06h-.66l.56,15-.56.55.82,26.84h1l.1,3.39h.4l.56-2.79V104.45Z"/><path class="cls-1" d="M110.91,121.86c.12,2.52.07,3.65.07,3.65h3.35l-.71-22,.81-.21s-2.63-11.54-2.74-13.26-1.21-4.45-1.21-5-6.3-18.83-11.58-34.53S93.62,30.94,93.62,30a4.81,4.81,0,0,0-.81-2.94C92.1,26.08,90,21,90,21c-.61,1.21.71,4.35.71,4.35l-2.13.3L80.43,41.06s23.95,44.76,24.46,45.87c.09.2.31,1.16.62,2.63l-.11,3.09.41,13.12h-.87L106.31,131l.92.81v2.53h.71v-2.53h.61l-.71-26h-1.11l.31-8.41c.08.42.06,7.62.06,7.62l1.33,0,1,15.85Z"/><polygon class="cls-1" points="104.16 135.18 119.82 135.18 125.25 137.91 125.25 138.98 123.57 138.98 123.57 140.12 107.51 140.12 107.51 138.98 106.59 138.98 106.59 137.36 104.16 135.18"/><path class="cls-1" d="M134.91,101l-16.48,1.31v2.19l17-.77v4.05l2.31,1.64v7.22a2.32,2.32,0,0,1-1.71-1.15h-.38V118h2.09v12.8H135.9v1.31l4.12,2.85v-27Z"/><path class="cls-1" d="M182.06,106.13h-2.33V152.2H150.39V140.27l9.87-84.06h33.46L201,94.06H203l7.27-37.85H243.9l9.74,84.06V152.2H224.43V106.13H222l-7.4,46.07H189.47Z"/><path class="cls-1" d="M273.91,152.2c-7.12,0-12.06-4.94-12.06-11.93V68.14c0-7,4.94-11.93,12.06-11.93h47.86c7.13,0,12.06,4.94,12.06,11.93v72.13c0,7-4.93,11.93-12.06,11.93Zm18-71.85V128.2h11.93V80.35Z"/><path class="cls-1" d="M404.85,56.21c7,0,11.92,4.94,11.92,11.93v37.71c0,4.53-3.42,9.6-7.95,10.83l9.46,23.59V152.2H388.94l-8.09-29.89h-6V152.2h-30v-96Zm-30,24.14v18h11.92v-18Z"/><path class="cls-1" d="M487.1,56.21l13.44,84.06V152.2h-30l-1.78-19.34H455.56l-1.92,19.34H423.75V140.27l13.44-84.06Zm-20.57,52.66-2.74-28.52H460.5l-2.74,28.52Z"/><path class="cls-1" d="M557,100.65l-4-32.51V56.21h27.7v96H548.93L534.8,107.91h-2.33l3.84,32.36V152.2H508.75v-96h31.81l14,44.44Z"/><path class="cls-1" d="M150.48,11.49V0h34.37V5.68l-2.45,5.81H175V45.72H159.67V11.49Z"/><path class="cls-1" d="M219.1,0c3.58,0,6.1,2.35,6.1,5.68v18a5.67,5.67,0,0,1-4.07,5.16L226,40v5.68H211l-4.14-14.24h-3.08V45.72H188.38V0ZM203.74,11.49v8.56h6.1V11.49Z"/><path class="cls-1" d="M261.21,0l6.87,40v5.68H252.72l-.91-9.21h-6.73l-1,9.21H228.8V40l6.87-40ZM250.69,25.08l-1.41-13.59H247.6l-1.4,13.59Z"/><path class="cls-1" d="M297,21.16,295,5.68V0h14.17V45.72H292.86l-7.22-21.1h-1.2l2,15.42v5.68h-14.1V0h16.27l7.16,21.16Z"/><path class="cls-1" d="M313.37,15.28V5.68c0-3.33,2.52-5.68,6.17-5.68H346.2V5.62l-2.39,5.87H328.73v2.09l13.32,8.3c3.37,2.09,4.15,4.11,4.15,7.77V40c0,3.33-2.53,5.68-6.11,5.68H313.37V34.29h17.46v-3L317.5,23.05C314.14,20.9,313.37,18.94,313.37,15.28Z"/><path class="cls-1" d="M365.78,31.48V45.72H350.42V0h30.65c3.65,0,6.18,2.35,6.18,5.68V25.73c0,3.33-2.53,5.75-6.18,5.75Zm0-11.43h6.11V11.49h-6.11Z"/><path class="cls-1" d="M398.35,45.72c-3.65,0-6.17-2.35-6.17-5.68V5.68c0-3.33,2.52-5.68,6.17-5.68h24.48C426.48,0,429,2.35,429,5.68V40c0,3.33-2.52,5.68-6.17,5.68Zm9.19-34.23v22.8h6.1V11.49Z"/><path class="cls-1" d="M465.36,0c3.58,0,6.1,2.35,6.1,5.68v18a5.67,5.67,0,0,1-4.07,5.16L472.23,40v5.68h-15l-4.14-14.24H450V45.72H434.63V0ZM450,11.49v8.56h6.1V11.49Z"/><path class="cls-1" d="M474.36,11.49V0h34.37V5.68l-2.45,5.81h-7.37V45.72H483.55V11.49Z"/><path class="cls-1" d="M512.26,45.72V0h32.82V5.68l-2.45,5.81H527.55v5.1h15.08V28H527.55v6.27h17.53V45.72Z"/><path class="cls-1" d="M547.91,15.28V5.68c0-3.33,2.52-5.68,6.17-5.68h26.66V5.62l-2.39,5.87H563.27v2.09l13.33,8.3C580,24,580.74,26,580.74,29.65V40c0,3.33-2.53,5.68-6.11,5.68H547.91V34.29h17.46v-3l-13.32-8.23C548.68,20.9,547.91,18.94,547.91,15.28Z"/></svg>