<?xml version="1.0" encoding="utf-8"?>
<!-- Generator: Adobe Illustrator 26.2.1, SVG Export Plug-In . SVG Version: 6.00 Build 0)  -->
<svg version="1.1" id="Layer_1" xmlns="http://www.w3.org/2000/svg" xmlns:xlink="http://www.w3.org/1999/xlink" x="0px" y="0px"
	 viewBox="0 0 1000 403.2" style="enable-background:new 0 0 1000 403.2;" xml:space="preserve">
<style type="text/css">
	.st0{fill:#FFFFFF;}
</style>
<path class="st0" d="M73.5,290.8h-5.4v107.1H-0.1v-27.7l22.9-195.3h77.8l16.9,87.9h4.8l16.9-87.9h78.1l22.6,195.3v27.7H172V290.8
	h-5.7l-17.3,107H90.7L73.5,290.8z"/>
<path class="st0" d="M286.9,397.8c-16.6,0-28-11.5-28-27.7V202.5c0-16.2,11.5-27.7,28-27.7h111.2c16.6,0,28,11.5,28,27.7v167.6
	c0,16.2-11.5,27.7-28,27.7L286.9,397.8L286.9,397.8z M328.7,230.8V342h27.7V230.9L328.7,230.8z"/>
<path class="st0" d="M591.2,174.8c16.2,0,27.7,11.5,27.7,27.7v87.6c0,10.5-8,22.3-18.5,25.2l22,54.8v27.7h-68.2l-18.8-69.5h-14v69.5
	h-69.8v-223L591.2,174.8z M521.4,230.9v41.7h27.7v-41.7H521.4z"/>
<path class="st0" d="M782.3,174.8l31.2,195.3v27.7h-69.8l-4.1-44.9H709l-4.5,44.9h-69.4v-27.7l31.2-195.3H782.3z M734.5,297.1
	l-6.4-66.3h-7.7l-6.4,66.3H734.5z"/>
<path class="st0" d="M944.8,278l-9.2-75.5v-27.7h64.4v223h-74l-32.8-102.9h-5.4l8.9,75.2v27.7h-64v-223h73.9L939,278H944.8z"/>
<path class="st0" d="M0.1,46.9V20.2H80v13.2l-5.7,13.5H57.2v79.5H21.5V46.9H0.1z"/>
<path class="st0" d="M159.6,20.2c8.3,0,14.2,5.5,14.2,13.2v41.7c-0.3,5.6-4.1,10.4-9.5,12l11.2,26.1v13.2h-34.9L131,93.3h-7.2v33.1
	H88.2V20.2H159.6z M123.9,46.9v19.9H138V46.9H123.9z"/>
<path class="st0" d="M257.4,20.2l16,93v13.2h-35.7l-2.1-21.4H220l-2.3,21.4h-35.5v-13.2l16-93L257.4,20.2z M233,78.4l-3.3-31.6h-3.9
	l-3.3,31.6H233z"/>
<path class="st0" d="M340.6,69.3l-4.7-36V20.2h32.9v106.2H331l-16.8-49h-2.8l4.6,35.8v13.2h-32.8V20.2H321l16.6,49.2L340.6,69.3
	L340.6,69.3z"/>
<path class="st0" d="M378.6,55.7V33.4c0-7.7,5.9-13.2,14.4-13.2h61.9v13.1l-5.5,13.6h-35v4.9l31,19.3c7.8,4.8,9.6,9.5,9.6,18v24.1
	c0,7.7-5.9,13.2-14.2,13.2h-62.2V99.8h40.6v-7l-31-19.1C380.4,68.7,378.6,64.2,378.6,55.7z"/>
<path class="st0" d="M500.4,93.3v33.1h-35.7V20.2h71.2c8.5,0,14.3,5.5,14.3,13.2V80c0,7.7-5.9,13.3-14.3,13.3H500.4z M500.4,66.8
	h14.2V46.9h-14.2L500.4,66.8L500.4,66.8z"/>
<path class="st0" d="M576.1,126.4c-8.5,0-14.3-5.5-14.3-13.2V33.4c0-7.7,5.9-13.2,14.3-13.2H633c8.5,0,14.3,5.5,14.3,13.2v79.8
	c0,7.7-5.9,13.2-14.3,13.2H576.1z M597.4,46.9v53h14.2v-53C611.6,46.9,597.4,46.9,597.4,46.9z"/>
<path class="st0" d="M731.8,20.2c8.3,0,14.2,5.5,14.2,13.2v41.7c-0.3,5.6-4.1,10.4-9.5,12l11.2,26.1v13.2h-34.9l-9.6-33.1H696v33.1
	h-35.7V20.2H731.8z M696.1,46.9v19.9h14.2V46.9H696.1z"/>
<path class="st0" d="M752.7,46.9V20.2h79.9v13.2l-5.7,13.5h-17.1v79.5h-35.7V46.9H752.7z"/>
<path class="st0" d="M840.8,126.4V20.2h76.3v13.2l-5.7,13.5h-35v11.8h35v26.6h-35v14.6h40.8v26.6L840.8,126.4L840.8,126.4z"/>
<path class="st0" d="M923.6,55.7V33.4c0-7.7,5.9-13.2,14.3-13.2h61.9v13.1l-5.5,13.6h-35v4.9l31,19.3c7.8,4.8,9.6,9.5,9.6,18v24.1
	c0,7.7-5.9,13.2-14.2,13.2h-62.2V99.8h40.6v-7l-31-19.1C925.4,68.7,923.6,64.2,923.6,55.7z"/>
</svg>
