<svg id="Layer_1" data-name="Layer 1" xmlns="http://www.w3.org/2000/svg" viewBox="0 0 200 114.91"><g id="aridos"><path d="M189,30.68h-4.77c-.46-6.75-2.71-11.89-5.44-11.89-1.53,0-2.91,1.6-3.91,4.19l-17.68-4.74.29-1.08a.66.66,0,0,0-.47-.81l-15.92-4.27a.67.67,0,0,0-.81.47l-1.17,4.36a.64.64,0,0,0,0,.36l-3.71-1-.11-.12a3.89,3.89,0,0,0-5-.32L96.9,41.55a31.62,31.62,0,0,0-2.64-5.23c-5.89-3-14.11-5-23.38-5.52a43,43,0,0,0-4,13.55H27.58A9.53,9.53,0,0,0,19,50.69l-2.76,9.08c-1.07,3.49,1,6.34,4.69,6.34h21.8v2a1.33,1.33,0,0,0,1.32,1.33H56.32v2H44.07a1.33,1.33,0,0,0-1.32,1.33v1H32A1.33,1.33,0,0,0,30.67,75v1.09H20.22a10.61,10.61,0,0,0-10.6,10.6v.6h1.32v.61a9.29,9.29,0,0,0,9.28,9.27h82.7a9.29,9.29,0,0,0,9.28-9.27v-.61h1.32v-.6a10.61,10.61,0,0,0-10.6-10.6h-6V75a1.33,1.33,0,0,0-1.32-1.33H84.81v-1a1.33,1.33,0,0,0-1.32-1.33H71.24v-2H83.49a1.33,1.33,0,0,0,1.32-1.33v-2H99.9a6.64,6.64,0,0,0,6.63-6.63v-4.9l.07,0,30.85-30.85,35.76,9.58a26.92,26.92,0,0,0,2.07,11V69.45c-10.64-.79-20.12-4.27-27.07-9.44a22.18,22.18,0,0,0-.48,4.41c0,5.45,3.17,13.07,7,16.93L158,84.56a10,10,0,0,0,14.06,0l7.12-7.13a9.67,9.67,0,0,0,2.32-3.7h5.61a1.66,1.66,0,0,0,1.66-1.65v-.81a1.65,1.65,0,0,0-1.17-1.56V52.21H189a.67.67,0,0,0,.66-.67V31.35A.67.67,0,0,0,189,30.68Zm-87,48.42a8.23,8.23,0,1,1,0,16.45H21.22a8.23,8.23,0,1,1,0-16.45ZM75,56.46c-2.46-8-2.29-15.82.07-21.3.11-.21.19-.43.3-.63,7.19.34,13.56,1.68,18.13,3.66a20.64,20.64,0,0,1,4.2,12.27C93.39,53.74,84.94,56.05,75,56.46Zm54.46-34.1-18.13,14a.87.87,0,0,1-1,0l-1.41-1.07a.45.45,0,0,1,0-.78l18.47-14.2a.77.77,0,0,1,1,.07l1.19,1.18A.56.56,0,0,1,129.45,22.36Zm44.4,4.21-17.78-4.76a.68.68,0,0,0,.21-.29L156.7,20l17.6,4.72C174.13,25.27,174,25.91,173.85,26.57Zm10.72,43H182V51.91a.63.63,0,0,0,.52.3h2Z"/><path d="M13.39,87.32a6.61,6.61,0,0,0,13,1.7h3.87A6.59,6.59,0,0,0,43,89H46.9a6.59,6.59,0,0,0,12.76,0h3.87a6.59,6.59,0,0,0,12.76,0h3.87a6.59,6.59,0,0,0,12.76,0h3.87a6.62,6.62,0,1,0,0-3.4H92.92a6.6,6.6,0,0,0-12.76,0H76.29a6.6,6.6,0,0,0-12.76,0H59.66a6.6,6.6,0,0,0-12.76,0H43a6.6,6.6,0,0,0-12.76,0H26.39a6.61,6.61,0,0,0-13,1.7Zm89.78-3.55a3.56,3.56,0,1,1-3.56,3.55A3.55,3.55,0,0,1,103.17,83.77Zm-16.63,0a3.59,3.59,0,0,1,3.12,1.9H83.42A3.59,3.59,0,0,1,86.54,83.72ZM89.66,89a3.51,3.51,0,0,1-6.24,0Zm-19.75-5.3A3.56,3.56,0,0,1,73,85.62H66.79A3.59,3.59,0,0,1,69.91,83.72ZM73,89a3.5,3.5,0,0,1-6.23,0Zm-19.75-5.3a3.56,3.56,0,0,1,3.12,1.9H50.16A3.57,3.57,0,0,1,53.27,83.72ZM56.39,89a3.5,3.5,0,0,1-6.23,0Zm-19.74-5.3a3.57,3.57,0,0,1,3.11,1.9H33.53A3.56,3.56,0,0,1,36.65,83.72ZM39.76,89a3.5,3.5,0,0,1-6.23,0Zm-16.15-1.7a3.6,3.6,0,1,1-3.6-3.6A3.6,3.6,0,0,1,23.61,87.32Z"/></g></svg>