<svg id="Layer_1" data-name="Layer 1" xmlns="http://www.w3.org/2000/svg" viewBox="0 0 100 67"><defs><style>.cls-1{fill:#333;}.cls-2{fill:#f9ba48;}</style></defs><polygon class="cls-1" points="47 38 45 38 45.01 36.88 47.12 20 63 20 63 29 61 29 61 22 48.88 22 47 37.06 47 38"/><path class="cls-2" d="M32.79,46.71l-1.37,1.61A6,6,0,0,0,30,52.2V57H60l14-5,2-2V31l-9-2H61V43a4,4,0,0,1-4,4H47V37H44c-2.32,0-3.44.52-4.2,1.42l-2,2.38Z"/><path class="cls-1" d="M68,67a9,9,0,1,1,9-9A9,9,0,0,1,68,67Zm0-16a7,7,0,1,0,7,7A7,7,0,0,0,68,51Z"/><path class="cls-1" d="M68,61a3,3,0,1,1,3-3A3,3,0,0,1,68,61Zm0-4a1,1,0,1,0,1,1A1,1,0,0,0,68,57Z"/><path class="cls-1" d="M41,67a9,9,0,1,1,9-9A9,9,0,0,1,41,67Zm0-16a7,7,0,1,0,7,7A7,7,0,0,0,41,51Z"/><path class="cls-1" d="M41,61a3,3,0,1,1,3-3A3,3,0,0,1,41,61Zm0-4a1,1,0,1,0,1,1A1,1,0,0,0,41,57Z"/><path class="cls-1" d="M27,27H24a9,9,0,0,1-9-9V11h7.22L36,17.36V18A9,9,0,0,1,27,27ZM17,13v5a7,7,0,0,0,7,7h3a7,7,0,0,0,7-6.37L21.78,13Z"/><rect class="cls-1" x="45" y="20" width="20" height="2"/><path class="cls-1" d="M55,35H47V33h8a1,1,0,0,0,1-1V21h2V32A3,3,0,0,1,55,35Z"/><rect class="cls-1" x="61" y="35" width="11" height="2"/><rect class="cls-1" x="74" y="35" width="2" height="2"/><path class="cls-1" d="M36.25,50a4.73,4.73,0,0,1-4.19-2.53l-8-15.15-2-6,1.9-.64,2,5.93,7.91,14.93A2.74,2.74,0,0,0,39,45.25a2.79,2.79,0,0,0-.49-1.64L30.07,31.37l-2-5,1.86-.74,2,4.89,8.27,12A4.81,4.81,0,0,1,36.25,50Z"/><rect class="cls-1" x="15" y="9" width="2" height="3"/><rect class="cls-1" x="16" y="15" width="6" height="2"/></svg>