<svg id="Layer_1" data-name="Layer 1" xmlns="http://www.w3.org/2000/svg" viewBox="0 0 100 67"><defs><style>.cls-1{fill:#f9ba48;}.cls-2{fill:#333;}.cls-3{fill:#fff;}</style></defs><polygon class="cls-1" points="12 49 12 38 37 38 37 58 26 58 21.61 52 16.81 49 12 49"/><path class="cls-2" d="M15,66.83a8,8,0,1,1,8-8A8,8,0,0,1,15,66.83Zm0-14a6,6,0,1,0,6,6A6,6,0,0,0,15,52.83Z"/><path class="cls-2" d="M15,61.83a3,3,0,1,1,3-3A3,3,0,0,1,15,61.83Zm0-4a1,1,0,1,0,1,1A1,1,0,0,0,15,57.83Z"/><path class="cls-2" d="M26,59.83H24V58.24a8.4,8.4,0,0,0-8.41-8.41H14.13a8.5,8.5,0,0,0-5,1.68L7.33,52.83H6v-2h.67l1.22-.92a10.49,10.49,0,0,1,6.24-2.08h1.46A10.4,10.4,0,0,1,26,58.24Z"/><path class="cls-2" d="M32,58.83H25v-2h5v-27a1,1,0,0,0-1-1H18v10H9a1,1,0,0,0-1,1v12H6v-12a3,3,0,0,1,3-3h7v-10H29a3,3,0,0,1,3,3Z"/><polygon class="cls-2" points="89 58.83 64 58.83 64 56.83 87 56.83 87 55.83 63 55.83 63 53.83 89 53.83 89 58.83"/><rect class="cls-2" x="31" y="56.83" width="35.1" height="2"/><rect class="cls-2" x="31" y="56.83" width="3" height="2"/><path class="cls-2" d="M29,38.83H19v-9H29Zm-8-2h6v-5H21Z"/><rect class="cls-2" x="31" y="53.83" width="39" height="2"/><rect class="cls-2" x="31" y="53.83" width="4" height="2"/><rect class="cls-2" x="14" y="26.83" width="3" height="2"/><circle class="cls-3" cx="86" cy="59" r="7"/><path class="cls-2" d="M86,66.83a8,8,0,1,1,8-8A8,8,0,0,1,86,66.83Zm0-14a6,6,0,1,0,6,6A6,6,0,0,0,86,52.83Z"/><path class="cls-2" d="M86,61.83a3,3,0,1,1,3-3A3,3,0,0,1,86,61.83Zm0-4a1,1,0,1,0,1,1A1,1,0,0,0,86,57.83Z"/><circle class="cls-3" cx="67" cy="59" r="7"/><path class="cls-2" d="M67,66.83a8,8,0,1,1,8-8A8,8,0,0,1,67,66.83Zm0-14a6,6,0,1,0,6,6A6,6,0,0,0,67,52.83Z"/><path class="cls-2" d="M67,61.83a3,3,0,1,1,3-3A3,3,0,0,1,67,61.83Zm0-4a1,1,0,1,0,1,1A1,1,0,0,0,67,57.83Z"/><rect class="cls-2" x="10" y="37.83" width="2" height="8"/><rect class="cls-1" x="12" y="41" width="18" height="2"/></svg>