<svg id="Layer_1" data-name="Layer 1" xmlns="http://www.w3.org/2000/svg" viewBox="0 0 200 114.91"><g id="baja"><path d="M53.07,75.8H50.8l-1.13,2,1.13,2h2.27l1.13-2Zm-1.13,2.94a1,1,0,1,1,1-1A1,1,0,0,1,51.94,78.74Z"/><polygon points="52.37 74.12 52.81 73.36 52.37 72.61 51.5 72.61 51.06 73.36 51.5 74.12 52.37 74.12"/><polygon points="51.5 81.39 51.06 82.15 51.5 82.91 52.37 82.91 52.81 82.15 52.37 81.39 51.5 81.39"/><polygon points="48.3 77.32 47.54 76.88 46.79 77.32 46.79 78.19 47.54 78.63 48.3 78.19 48.3 77.32"/><polygon points="55.57 77.32 55.57 78.19 56.33 78.63 57.08 78.19 57.08 77.32 56.33 76.88 55.57 77.32"/><polygon points="49.06 75.5 49.67 74.88 49.45 74.03 48.6 73.8 47.98 74.43 48.21 75.27 49.06 75.5"/><polygon points="54.81 80.02 54.2 80.64 54.42 81.48 55.27 81.71 55.89 81.09 55.66 80.25 54.81 80.02"/><polygon points="48.21 80.25 47.98 81.09 48.6 81.71 49.45 81.48 49.67 80.64 49.06 80.02 48.21 80.25"/><polygon points="55.66 75.27 55.89 74.43 55.27 73.8 54.42 74.03 54.2 74.88 54.81 75.5 55.66 75.27"/><path d="M51.94,65.4A12.36,12.36,0,1,0,64.29,77.76,12.36,12.36,0,0,0,51.94,65.4Zm0,19.69a7.33,7.33,0,1,1,7.32-7.33A7.33,7.33,0,0,1,51.94,85.09Z"/><path d="M147.59,75.8h-2.26l-1.14,2,1.14,2h2.26l1.13-2Zm-1.14,2.94a1,1,0,1,1,1-1A1,1,0,0,1,146.45,78.74Z"/><polygon points="146.9 74.12 147.33 73.36 146.9 72.61 146.03 72.61 145.58 73.36 146.03 74.12 146.9 74.12"/><polygon points="146.03 81.39 145.58 82.15 146.03 82.91 146.9 82.91 147.33 82.15 146.9 81.39 146.03 81.39"/><polygon points="142.82 77.32 142.06 76.88 141.31 77.32 141.31 78.19 142.06 78.63 142.82 78.19 142.82 77.32"/><polygon points="150.09 77.32 150.09 78.19 150.84 78.63 151.6 78.19 151.6 77.32 150.84 76.88 150.09 77.32"/><polygon points="143.58 75.5 144.2 74.88 143.97 74.03 143.12 73.8 142.51 74.43 142.73 75.27 143.58 75.5"/><polygon points="149.33 80.02 148.72 80.64 148.94 81.48 149.79 81.71 150.41 81.09 150.19 80.25 149.33 80.02"/><polygon points="142.73 80.25 142.51 81.09 143.12 81.71 143.97 81.48 144.2 80.64 143.58 80.02 142.73 80.25"/><polygon points="150.19 75.27 150.41 74.43 149.79 73.8 148.94 74.03 148.72 74.88 149.33 75.5 150.19 75.27"/><path d="M146.46,65.4a12.36,12.36,0,1,0,12.35,12.36A12.36,12.36,0,0,0,146.46,65.4Zm0,19.69a7.33,7.33,0,1,1,7.34-7.33A7.33,7.33,0,0,1,146.45,85.09Z"/><path d="M80.55,75.8H78.29l-1.13,2,1.13,2h2.26l1.14-2Zm-1.13,2.94a1,1,0,1,1,1-1A1,1,0,0,1,79.42,78.74Z"/><polygon points="79.86 74.12 80.3 73.36 79.86 72.61 78.99 72.61 78.55 73.36 78.99 74.12 79.86 74.12"/><polygon points="78.99 81.39 78.55 82.15 78.99 82.91 79.86 82.91 80.3 82.15 79.86 81.39 78.99 81.39"/><polygon points="75.79 77.32 75.03 76.88 74.28 77.32 74.28 78.19 75.03 78.63 75.79 78.19 75.79 77.32"/><polygon points="83.06 77.32 83.06 78.19 83.81 78.63 84.57 78.19 84.57 77.32 83.81 76.88 83.06 77.32"/><polygon points="76.54 75.5 77.16 74.88 76.94 74.03 76.09 73.8 75.47 74.43 75.7 75.27 76.54 75.5"/><polygon points="82.3 80.02 81.68 80.64 81.91 81.48 82.76 81.71 83.38 81.09 83.15 80.25 82.3 80.02"/><polygon points="75.7 80.25 75.47 81.09 76.09 81.71 76.94 81.48 77.16 80.64 76.54 80.02 75.7 80.25"/><polygon points="83.15 75.27 83.38 74.43 82.76 73.8 81.91 74.03 81.68 74.88 82.3 75.5 83.15 75.27"/><path d="M79.42,65.4A12.36,12.36,0,1,0,91.78,77.76,12.35,12.35,0,0,0,79.42,65.4Zm0,19.69a7.33,7.33,0,1,1,7.33-7.33A7.34,7.34,0,0,1,79.42,85.09Z"/><path d="M176.89,63.42a.68.68,0,0,0,.32-.53s0-.2,0-.67a188.27,188.27,0,0,0-1.07-20.12.83.83,0,0,0-.78-.71l-.62,0c-.19-8.8-4.18-20.61-4.18-20.61a2.61,2.61,0,0,0-2.32-1.66H137.83a1.76,1.76,0,0,0-1.75,1.75V54.1a6.18,6.18,0,0,0-5.36,3.13V47.54H19.49V59.38a1.76,1.76,0,0,0,1.75,1.75h6.12v5.63a.71.71,0,0,0,.7.7h1.32v4.75a.7.7,0,0,0,.7.7h4.61v4.14a.7.7,0,0,0,.7.71H37a14.9,14.9,0,0,1,14.9-14.9,14.59,14.59,0,0,1,10.73,4.73H68.6A14.86,14.86,0,0,1,94.33,77.76h2.45a.7.7,0,0,0,.7-.71V72.91h5.74V75.3a2.46,2.46,0,0,0,2.45,2.46h22A2.44,2.44,0,0,0,130,75.52a3.26,3.26,0,0,0,.61.11h1.12a14.83,14.83,0,0,1,29.37,0h12.13a5,5,0,0,0,4.49-3.37l1.6-5.49A2.48,2.48,0,0,0,176.89,63.42ZM43.4,62.64H31.1V61.13H43.4Zm28.92,0H60V61.13h12.3Zm35.28,0H94.8V61.13h12.8Zm40.75-21.37V26.11a1.75,1.75,0,0,1,1.75-1.75h17.06A2.54,2.54,0,0,1,169.43,26a102.12,102.12,0,0,1,3.32,15.24Z"/></g></svg>