<svg id="Layer_1" data-name="Layer 1" xmlns="http://www.w3.org/2000/svg" viewBox="0 0 200 114.91"><g id="compactacion"><path d="M66.12,78.62H62.88l-1.62,2.8,1.62,2.8h3.24l1.62-2.8ZM64.5,82.83a1.41,1.41,0,1,1,1.41-1.41A1.41,1.41,0,0,1,64.5,82.83Z"/><polygon points="65.13 76.22 65.75 75.14 65.13 74.05 63.88 74.05 63.25 75.14 63.88 76.22 65.13 76.22"/><polygon points="63.88 86.62 63.25 87.7 63.88 88.78 65.13 88.78 65.75 87.7 65.13 86.62 63.88 86.62"/><polygon points="59.3 80.8 58.22 80.17 57.13 80.8 57.13 82.05 58.22 82.67 59.3 82.05 59.3 80.8"/><polygon points="69.7 80.8 69.7 82.05 70.78 82.67 71.86 82.05 71.86 80.8 70.78 80.17 69.7 80.8"/><polygon points="60.38 78.18 61.27 77.3 60.95 76.09 59.73 75.77 58.85 76.66 59.17 77.86 60.38 78.18"/><polygon points="68.62 84.65 67.73 85.54 68.06 86.75 69.27 87.07 70.15 86.19 69.83 84.98 68.62 84.65"/><polygon points="59.17 84.98 58.85 86.19 59.73 87.07 60.95 86.75 61.27 85.54 60.38 84.65 59.17 84.98"/><polygon points="69.83 77.86 70.15 76.66 69.27 75.77 68.06 76.09 67.73 77.3 68.62 78.18 69.83 77.86"/><path d="M64.5,63.75A17.67,17.67,0,1,0,82.17,81.42,17.67,17.67,0,0,0,64.5,63.75Zm0,28.15A10.48,10.48,0,1,1,75,81.42,10.48,10.48,0,0,1,64.5,91.9Z"/><path d="M151.66,72.33a3.85,3.85,0,1,0-3.85,3.84A3.85,3.85,0,0,0,151.66,72.33Z"/><path d="M147.81,45.43a26.9,26.9,0,0,0-24.63,16.12h-8.06a3.86,3.86,0,0,0-3.85,3.85v1.9h-4.8V65.36c11-6.65,19-25.75,19-48.3,0-.89,0-1.75-.07-2.63,1.12.05,2.25.07,3.36.12h.09a1.92,1.92,0,0,0,.09-3.84c-16.94-.77-34.58-.82-51.58-.13a1.91,1.91,0,0,0-1.84,2,1.88,1.88,0,0,0,2,1.84l1.66,0q-1.59,8.21-2.7,17a55.77,55.77,0,0,0-20.66,2,56.54,56.54,0,0,0-12.88,5.46l1.51,1.5c-1.12.72-2.19,1.46-3.2,2.24l-1.64-1.65c-.71.49-1.45.95-2.12,1.46l1.79,1.79c-.49.41-1,.83-1.45,1.26L36,43.52c-.65.54-1.37,1-2,1.61l2,2a32,32,0,0,0-2.47,3l-2.23-2.23c-.56.64-1.13,1.28-1.62,1.94l2.4,2.41c-.36.58-.65,1.17-.95,1.76L28.6,51.44c-.48.73-1,1.46-1.37,2.2l2.84,2.84A18.69,18.69,0,0,0,29,60.85l-3.41-3.4a16.74,16.74,0,0,0-.28,9.65,16,16,0,0,0,2.21,4.66,4.19,4.19,0,0,0-2.73,4.86,7,7,0,0,0,6.78,5.22H43.64a21.43,21.43,0,0,1-.27-3.23c0-11.67,9.46-19.84,21.13-19.84s21.13,8.17,21.13,19.84a21.43,21.43,0,0,1-.27,3.23H105.7a.78.78,0,0,0,.77-.77V77.36h4.8v1.9a3.86,3.86,0,0,0,3.85,3.85h8.06a26.89,26.89,0,1,0,24.63-37.68ZM89.66,33.6C87.15,33,84.6,32.47,82,32c-1.09-.21-2.17-.4-3.25-.59q1-8.41,2.64-16.71c2.78-.1,5.53-.16,8.26-.21Zm3.52.85V14.39c2.82,0,5.63-.07,8.37-.07,7.12,0,14.36.13,21.55.39,0,.78,0,1.56,0,2.35a82.11,82.11,0,0,1-4,25.84A185,185,0,0,0,93.18,34.45Zm54.63,60.83a22.94,22.94,0,0,1-20.26-12.17h6a17.91,17.91,0,1,0,0-21.56h-6a23,23,0,1,1,20.26,33.73Zm-8.26-23a8.27,8.27,0,1,1,8.26,8.27A8.26,8.26,0,0,1,139.55,72.33Z"/></g></svg>