<svg id="Layer_1" data-name="Layer 1" xmlns="http://www.w3.org/2000/svg" viewBox="0 0 100 67"><defs><style>.cls-1{fill:#333;}.cls-2{fill:#f9ba48;}</style></defs><path class="cls-1" d="M46.82,53h-2V30H30.76a3,3,0,0,0-1.34.32l-6.94,3.47a3,3,0,0,0-1.66,2.68V53h-2V36.47A5,5,0,0,1,21.58,32l7-3.47A5,5,0,0,1,30.76,28H46.82Z"/><polygon class="cls-1" points="78.82 49 76.82 49 76.82 35 62.35 35 56.35 44 45.82 44 45.82 42 55.28 42 61.28 33 78.82 33 78.82 49"/><rect class="cls-1" x="45.82" y="54" width="12" height="2"/><rect class="cls-1" x="73.82" y="9" width="2" height="25"/><path class="cls-1" d="M77.82,11h-25a3,3,0,0,1,0-6h25Zm-25-4a1,1,0,0,0,0,2h23V7Z"/><polygon class="cls-1" points="49.82 43 47.82 43 47.82 25.46 51.26 23.17 52.37 24.83 49.82 26.54 49.82 43"/><path class="cls-2" d="M68.82,66a11,11,0,1,1,11-11A11,11,0,0,1,68.82,66Z"/><path class="cls-2" d="M38.2,40.08h-.38V53a5,5,0,0,1-10,0V40.08h-.39a14,14,0,1,0,10.77,0Z"/><path class="cls-1" d="M32.82,59a6,6,0,0,1-6-6V40h2V53a4,4,0,0,0,8,0V40h2V53A6,6,0,0,1,32.82,59Z"/><path class="cls-1" d="M32.82,56a3,3,0,1,1,3-3A3,3,0,0,1,32.82,56Zm0-4a1,1,0,1,0,1,1A1,1,0,0,0,32.82,52Z"/><path class="cls-1" d="M68.82,60a5,5,0,1,1,5-5A5,5,0,0,1,68.82,60Zm0-8a3,3,0,1,0,3,3A3,3,0,0,0,68.82,52Z"/><rect class="cls-1" x="50.82" y="20.47" width="2" height="8.06" transform="translate(-5.33 28.94) rotate(-29.74)"/><polygon class="cls-1" points="68.82 32 59.82 32 59.82 30 66.82 30 66.82 23 68.82 23 68.82 32"/><path class="cls-1" d="M46.82,38h-16a3,3,0,1,1,0-6h16Zm-16-4a1,1,0,1,0,0,2h14V34Z"/><rect class="cls-1" x="58.82" y="38" width="13" height="2"/><rect class="cls-1" x="73.82" y="38" width="4" height="2"/></svg>