<svg id="Layer_1" data-name="Layer 1" xmlns="http://www.w3.org/2000/svg" viewBox="0 0 100 67"><defs><style>.cls-1{fill:#333;}.cls-2{fill:#f9ba48;}</style></defs><path class="cls-1" d="M75.54,64.34H43.64a7.45,7.45,0,1,1,0-14.89h31.9a7.45,7.45,0,0,1,0,14.89ZM43.64,51.58a5.32,5.32,0,1,0,0,10.63h31.9a5.32,5.32,0,1,0,0-10.63Z"/><path class="cls-1" d="M43.64,61.15a4.26,4.26,0,1,1,4.25-4.25A4.26,4.26,0,0,1,43.64,61.15Zm0-6.38a2.13,2.13,0,1,0,2.12,2.13A2.13,2.13,0,0,0,43.64,54.77Z"/><path class="cls-1" d="M75.54,61.15a4.26,4.26,0,1,1,4.25-4.25A4.25,4.25,0,0,1,75.54,61.15Zm0-6.38a2.13,2.13,0,1,0,2.13,2.13A2.13,2.13,0,0,0,75.54,54.77Z"/><circle class="cls-1" cx="51.08" cy="53.71" r="1.06"/><circle class="cls-1" cx="55.33" cy="53.71" r="1.06"/><circle class="cls-1" cx="59.59" cy="53.71" r="1.06"/><circle class="cls-1" cx="63.84" cy="53.71" r="1.06"/><circle class="cls-1" cx="68.1" cy="53.71" r="1.06"/><circle class="cls-1" cx="51.08" cy="60.09" r="1.06"/><circle class="cls-1" cx="55.33" cy="60.09" r="1.06"/><circle class="cls-1" cx="59.59" cy="60.09" r="1.06"/><circle class="cls-1" cx="63.84" cy="60.09" r="1.06"/><circle class="cls-1" cx="68.1" cy="60.09" r="1.06"/><rect class="cls-1" x="52.14" y="46.26" width="2.13" height="4.25"/><rect class="cls-1" x="64.91" y="46.26" width="2.13" height="4.25"/><path class="cls-1" d="M36,49.45H28.75a4.26,4.26,0,1,1,0-8.51h1.3a4.26,4.26,0,0,0,4.09-3.08l1.58-5.52,5.34,6.4a6.53,6.53,0,0,1-5,10.71Zm-7.29-6.38a2.13,2.13,0,0,0,0,4.26H36a4.41,4.41,0,0,0,3.38-7.23l-2.76-3.31-.47,1.65a6.41,6.41,0,0,1-6.14,4.63Z"/><rect class="cls-1" x="34.06" y="31.05" width="2.13" height="3.83" transform="translate(-12.39 25.02) rotate(-33.69)"/><path class="cls-1" d="M24.54,44.44,17,19.73,19.91,5.25a3.22,3.22,0,0,1,6.35,1.08L24.51,18.57l5.27,23.2-2.07.47L22.35,18.65,24.15,6a1,1,0,0,0-.26-.87,1.07,1.07,0,0,0-.82-.37A1.09,1.09,0,0,0,22,5.66l-2.79,14,7.36,24.21Z"/><polygon class="cls-1" points="50.21 19.23 45.18 12.18 24.39 10.1 24.6 7.98 46.35 10.16 51.95 17.99 50.21 19.23"/><polygon class="cls-1" points="47.02 26.67 41.94 19.55 24.25 15.39 24.74 13.32 43.2 17.67 48.75 25.44 47.02 26.67"/><rect class="cls-1" x="34.6" y="-1.94" width="2.13" height="20.89" transform="translate(18.36 40.83) rotate(-75.26)"/><path class="cls-2" d="M78.73,47.33h-33V31.63a22.31,22.31,0,0,1,1.15-7.06l1.61-4.84a3.18,3.18,0,0,1,3-2.18h9.1a3.19,3.19,0,0,1,3.19,3.19v9.57h11.7a3.19,3.19,0,0,1,3.19,3.19Z"/><rect class="cls-1" x="62.78" y="37.75" width="9.57" height="2.13"/><rect class="cls-1" x="74.48" y="37.75" width="3.19" height="2.13"/><path class="cls-1" d="M53.21,36.69H46.83V34.56h6.38a3.19,3.19,0,0,0,3.19-3.19V18.61h2.12V31.37A5.32,5.32,0,0,1,53.21,36.69Z"/></svg>