<svg id="Layer_1" data-name="Layer 1" xmlns="http://www.w3.org/2000/svg" viewBox="0 0 100 67"><defs><style>.cls-1{fill:#333;}.cls-2{fill:#f9ba48;}</style></defs><path class="cls-1" d="M27,60.68a5,5,0,1,1,5-5A5,5,0,0,1,27,60.68Zm0-8a3,3,0,1,0,3,3A3,3,0,0,0,27,52.68Z"/><path class="cls-1" d="M39,60.68a5,5,0,1,1,5-5A5,5,0,0,1,39,60.68Zm0-8a3,3,0,1,0,3,3A3,3,0,0,0,39,52.68Z"/><rect class="cls-1" x="19" y="54.68" width="4" height="2"/><rect class="cls-1" x="31" y="54.68" width="4" height="2"/><rect class="cls-1" x="43" y="54.68" width="15" height="2"/><path class="cls-2" d="M71.22,56.11A8,8,0,1,1,64,44.68a8.2,8.2,0,0,1,1.7.19L66,55.68Z"/><path class="cls-1" d="M79,56.68H66a2,2,0,0,1-2-2v-8a2,2,0,0,1,2-2H79a2,2,0,0,1,2,2v8A2,2,0,0,1,79,56.68Zm-13-10v8H79v-8Z"/><path class="cls-1" d="M48.33,52.68H45v-2h3.33A5,5,0,0,0,52,49l5.43-6a7,7,0,0,1,5.2-2.32H76v2H62.67A5,5,0,0,0,59,44.34l-5.43,6A7,7,0,0,1,48.33,52.68Z"/><path class="cls-1" d="M46,55.68H44v-23H25.83a1,1,0,0,0-.71.3L22.29,35.8a1.05,1.05,0,0,0-.29.71V55.68H20V36.51a3,3,0,0,1,.88-2.12l2.83-2.83a3,3,0,0,1,2.12-.88H46Z"/><polygon class="cls-1" points="45.63 32.46 44.38 30.9 49 27.2 49 10.68 77 10.68 77 12.68 51 12.68 51 28.16 45.63 32.46"/><rect class="cls-1" x="74" y="11.68" width="2" height="34"/><path class="cls-1" d="M75,37.68H63.28l-2.77-8.31a1,1,0,0,0-.95-.69H50v-2h9.56a3,3,0,0,1,2.84,2.05l2.32,7H75Z"/><rect class="cls-1" x="50" y="14.68" width="25" height="2"/><rect class="cls-1" x="21" y="35.68" width="18" height="2"/><rect class="cls-1" x="41" y="35.68" width="4" height="2"/><path class="cls-1" d="M40,31.68H38v-22a3,3,0,0,1,3-3h2v2H41a1,1,0,0,0-1,1Z"/><rect class="cls-2" x="46" y="37.68" width="28" height="3"/></svg>