<svg id="Layer_1" data-name="Layer 1" xmlns="http://www.w3.org/2000/svg" viewBox="0 0 200 114.91"><g id="preparacion"><path d="M22.55,41.44h4V34.58H36v6.86h2.66l12.68-22A2.93,2.93,0,0,1,53.88,18H83.16a3,3,0,0,1,2.54,1.46l14.64,25.36a3,3,0,0,1,0,2.93l-3.76,6.5h62.55l20.49,20.49-8.1,8.1A15.93,15.93,0,0,0,144,68H98.72v3l5.66,5.66h1.79V70.36h8.23V84.9l3.49,6H106.17V83.53h-4.64l-9.67-9.68V68H88.67l-3,5.14a2.92,2.92,0,0,1-2.12,1.43,15.94,15.94,0,0,0-31.07,0H51.6a15.94,15.94,0,0,0-30.91-.66,2.94,2.94,0,0,1-1.07-2.27V44.37A2.93,2.93,0,0,1,22.55,41.44Zm45.1-.74h11l2.9,5H93.91L80.38,22.28H67.65Z"/><path d="M155,76h2.41l1.2,2.08-1.2,2.09H155l-1.2-2.09Zm1.21,3.13a1,1,0,1,0-1.05-1A1,1,0,0,0,156.25,79.11Z"/><polygon points="155.78 74.2 155.32 73.39 155.78 72.59 156.71 72.59 157.18 73.39 156.71 74.2 155.78 74.2"/><polygon points="156.71 81.93 157.18 82.73 156.71 83.54 155.78 83.54 155.32 82.73 155.78 81.93 156.71 81.93"/><polygon points="160.11 77.6 160.92 77.14 161.72 77.6 161.72 78.53 160.92 78.99 160.11 78.53 160.11 77.6"/><polygon points="152.38 77.6 152.38 78.53 151.58 78.99 150.77 78.53 150.77 77.6 151.58 77.14 152.38 77.6"/><polygon points="159.31 75.66 158.65 75 158.88 74.11 159.79 73.86 160.45 74.52 160.21 75.42 159.31 75.66"/><polygon points="153.19 80.47 153.84 81.13 153.6 82.02 152.7 82.27 152.04 81.61 152.28 80.71 153.19 80.47"/><polygon points="160.21 80.71 160.45 81.61 159.79 82.27 158.88 82.02 158.65 81.13 159.31 80.47 160.21 80.71"/><polygon points="152.28 75.42 152.04 74.52 152.7 73.86 153.6 74.11 153.84 75 153.19 75.66 152.28 75.42"/><path d="M156.24,64.93a13.14,13.14,0,1,1-13.13,13.13A13.13,13.13,0,0,1,156.24,64.93Zm0,20.93a7.79,7.79,0,1,0-7.8-7.79A7.79,7.79,0,0,0,156.25,85.86Z"/><path d="M67.06,76h2.41l1.2,2.08-1.2,2.09H67.06l-1.21-2.09Zm1.2,3.13a1,1,0,1,0-1.05-1A1,1,0,0,0,68.26,79.11Z"/><polygon points="67.79 74.2 67.33 73.39 67.79 72.59 68.72 72.59 69.19 73.39 68.72 74.2 67.79 74.2"/><polygon points="68.72 81.93 69.19 82.73 68.72 83.54 67.79 83.54 67.33 82.73 67.79 81.93 68.72 81.93"/><polygon points="72.13 77.6 72.93 77.14 73.73 77.6 73.73 78.53 72.93 78.99 72.13 78.53 72.13 77.6"/><polygon points="64.39 77.6 64.39 78.53 63.59 78.99 62.78 78.53 62.78 77.6 63.59 77.14 64.39 77.6"/><polygon points="71.32 75.66 70.67 75 70.9 74.11 71.81 73.86 72.46 74.52 72.22 75.42 71.32 75.66"/><polygon points="65.2 80.47 65.86 81.13 65.62 82.02 64.72 82.27 64.06 81.61 64.3 80.71 65.2 80.47"/><polygon points="72.22 80.71 72.46 81.61 71.81 82.27 70.9 82.02 70.67 81.13 71.32 80.47 72.22 80.71"/><polygon points="64.3 75.42 64.06 74.52 64.72 73.86 65.62 74.11 65.86 75 65.2 75.66 64.3 75.42"/><path d="M68.26,64.93A13.14,13.14,0,1,1,55.13,78.06,13.14,13.14,0,0,1,68.26,64.93Zm0,20.93a7.79,7.79,0,1,0-7.79-7.79A7.79,7.79,0,0,0,68.26,85.86Z"/><path d="M34.94,76h2.41l1.2,2.08-1.2,2.09H34.94l-1.2-2.09Zm1.21,3.13a1,1,0,1,0-1.06-1A1.06,1.06,0,0,0,36.15,79.11Z"/><polygon points="35.68 74.2 35.22 73.39 35.68 72.59 36.61 72.59 37.08 73.39 36.61 74.2 35.68 74.2"/><polygon points="36.61 81.93 37.08 82.73 36.61 83.54 35.68 83.54 35.22 82.73 35.68 81.93 36.61 81.93"/><polygon points="40.01 77.6 40.82 77.14 41.62 77.6 41.62 78.53 40.82 78.99 40.01 78.53 40.01 77.6"/><polygon points="32.28 77.6 32.28 78.53 31.48 78.99 30.67 78.53 30.67 77.6 31.48 77.14 32.28 77.6"/><polygon points="39.21 75.66 38.55 75 38.78 74.11 39.69 73.86 40.35 74.52 40.11 75.42 39.21 75.66"/><polygon points="33.09 80.47 33.74 81.13 33.5 82.02 32.6 82.27 31.94 81.61 32.18 80.71 33.09 80.47"/><polygon points="40.11 80.71 40.35 81.61 39.69 82.27 38.78 82.02 38.55 81.13 39.21 80.47 40.11 80.71"/><polygon points="32.18 75.42 31.94 74.52 32.6 73.86 33.5 74.11 33.74 75 33.09 75.66 32.18 75.42"/><path d="M36.14,64.93A13.14,13.14,0,1,1,23,78.06,13.13,13.13,0,0,1,36.14,64.93Zm0,20.93a7.79,7.79,0,1,0-7.8-7.79A7.8,7.8,0,0,0,36.15,85.86Z"/></g></svg>