<svg id="Layer_1" data-name="Layer 1" xmlns="http://www.w3.org/2000/svg" viewBox="0 0 100 67"><defs><style>.cls-1{fill:#f9ba48;}.cls-2{fill:#333;}</style></defs><rect class="cls-1" x="45" y="28.5" width="35" height="16"/><path class="cls-2" d="M26,61.5a5,5,0,1,1,5-5A5,5,0,0,1,26,61.5Zm0-8a3,3,0,1,0,3,3A3,3,0,0,0,26,53.5Z"/><circle class="cls-2" cx="26" cy="56.5" r="1"/><path class="cls-2" d="M61,61.5a5,5,0,1,1,5-5A5,5,0,0,1,61,61.5Zm0-8a3,3,0,1,0,3,3A3,3,0,0,0,61,53.5Z"/><circle class="cls-2" cx="61" cy="56.5" r="1"/><path class="cls-2" d="M71,61.5a5,5,0,1,1,5-5A5,5,0,0,1,71,61.5Zm0-8a3,3,0,1,0,3,3A3,3,0,0,0,71,53.5Z"/><circle class="cls-2" cx="71" cy="56.5" r="1"/><path class="cls-2" d="M43,56.5H40v-2h1v-25a1,1,0,0,0-1-1H29a4,4,0,0,0-3.51,2.08L23.08,35A17,17,0,0,0,21,43.09V54.5h1v2H19V43.09A19,19,0,0,1,21.32,34l2.38-4.36A6,6,0,0,1,29,26.5H40a3,3,0,0,1,3,3Z"/><path class="cls-2" d="M55,58.5H44v-6H55Zm-9-2h7v-2H46Z"/><rect class="cls-2" x="42" y="54.5" width="3" height="2"/><rect class="cls-2" x="54" y="54.5" width="3" height="2"/><rect class="cls-2" x="65" y="54.5" width="2" height="2"/><polygon class="cls-2" points="81 56.5 75 56.5 75 54.5 79 54.5 79 48.5 42 48.5 42 46.5 81 46.5 81 56.5"/><path class="cls-2" d="M36,61.5a5,5,0,1,1,5-5A5,5,0,0,1,36,61.5Zm0-8a3,3,0,1,0,3,3A3,3,0,0,0,36,53.5Z"/><circle class="cls-2" cx="36" cy="56.5" r="1"/><rect class="cls-2" x="30" y="54.5" width="2" height="2"/><path class="cls-2" d="M34,42.5H20v-2H34v-8H24v-2H34a2,2,0,0,1,2,2v8A2,2,0,0,1,34,42.5Z"/><polygon class="cls-2" points="81 45.5 79 45.5 79 26.5 52.59 26.5 48.59 22.5 38 22.5 38 20.5 49.41 20.5 53.41 24.5 81 24.5 81 45.5"/><rect class="cls-2" x="44" y="21.5" width="2" height="24"/><rect class="cls-2" x="45" y="28.5" width="27" height="2"/><rect class="cls-2" x="74" y="28.5" width="6" height="2"/><rect class="cls-2" x="49" y="29.5" width="2" height="16"/><rect class="cls-2" x="54" y="29.5" width="2" height="16"/><rect class="cls-2" x="59" y="29.5" width="2" height="16"/><rect class="cls-2" x="64" y="29.5" width="2" height="16"/><rect class="cls-2" x="69" y="29.5" width="2" height="16"/><rect class="cls-2" x="74" y="29.5" width="2" height="16"/><polygon class="cls-2" points="46.86 22.02 45.14 20.98 51.43 10.5 55.32 10.5 57.32 5.5 66.64 5.5 72.91 19.08 71.09 19.92 65.36 7.5 58.68 7.5 56.68 12.5 52.57 12.5 46.86 22.02"/><polygon class="cls-2" points="79.05 25.82 75.18 14.21 71.76 12.5 68 12.5 68 10.5 72.24 10.5 76.82 12.79 80.95 25.18 79.05 25.82"/></svg>